Coordinates
version=1
nRows=18
nColumns=63
inDegrees=yes

Units are S.I. units (second, meters, Newtons, ...)
If the header above contains a line with 'inDegrees', this indicates whether rotational values are in degrees (yes) or radians (no).

endheader
time	pelvis_tilt	pelvis_list	pelvis_rotation	pelvis_tx	pelvis_ty	pelvis_tz	hip_flexion_r	hip_adduction_r	hip_rotation_r	knee_angle_r	knee_angle_r_beta	ankle_angle_r	subtalar_angle_r	mtp_angle_r	hip_flexion_l	hip_adduction_l	hip_rotation_l	knee_angle_l	knee_angle_l_beta	ankle_angle_l	subtalar_angle_l	mtp_angle_l	L5_S1_Flex_Ext	L5_S1_Lat_Bending	L5_S1_axial_rotation	L4_L5_Flex_Ext	L4_L5_Lat_Bending	L4_L5_axial_rotation	L3_L4_Flex_Ext	L3_L4_Lat_Bending	L3_L4_axial_rotation	L2_L3_Flex_Ext	L2_L3_Lat_Bending	L2_L3_axial_rotation	L1_L2_Flex_Ext	L1_L2_Lat_Bending	L1_L2_axial_rotation	L1_T12_Flex_Ext	L1_T12_Lat_Bending	L1_T12_axial_rotation	Abs_r3	Abs_r2	Abs_r1	Abs_t1	Abs_t2	neck_flexion	neck_bending	neck_rotation	arm_flex_r	arm_add_r	arm_rot_r	elbow_flex_r	pro_sup_r	wrist_flex_r	wrist_dev_r	arm_flex_l	arm_add_l	arm_rot_l	elbow_flex_l	pro_sup_l	wrist_flex_l	wrist_dev_l
0.000000	1.945813	-6.254513	87.705847	0.320890	1.032926	0.442200	6.808323	-4.513237	-6.588266	10.591431	0.184855	34.129848	10.896938	0.000000	6.297392	2.811080	1.421944	7.795028	0.136049	29.998829	-9.699820	0.000000	0.475097	0.098036	0.338064	0.882303	0.130388	0.359193	0.780538	0.238365	0.359193	0.542989	0.238365	0.295806	0.441175	0.199915	0.274677	0.271471	0.151858	0.253548	3.393573	1.109003	1.880209	0.000000	0.000000	28.440385	0.845075	2.366102	25.278413	-8.547367	73.106724	47.915658	62.227681	-6.890036	-3.497522	17.139500	-3.806456	46.315587	51.615684	57.538156	-8.746397	12.254567
0.016667	2.094357	-6.299386	88.862310	0.320651	1.031880	0.444032	6.747006	-4.362310	-6.756927	10.543568	0.184020	34.341297	9.815462	0.000000	6.735314	2.613459	1.248850	8.244150	0.143888	30.943088	-8.010268	0.000000	0.466177	0.088728	0.197612	0.865737	0.118009	0.209963	0.765882	0.215734	0.209963	0.532794	0.215734	0.172910	0.432892	0.180935	0.160560	0.266374	0.137440	0.148209	3.329856	1.003712	1.099058	0.000000	0.000000	28.438169	0.870117	1.687824	24.855235	-8.288293	71.591208	47.519404	65.441829	-6.990540	-2.741315	17.265162	-3.670904	46.581681	51.304827	56.432395	-8.526919	13.140148
0.033333	2.199254	-6.332133	89.725131	0.320599	1.031035	0.445509	6.696487	-4.246945	-6.791944	10.495914	0.183188	34.490226	8.938109	0.000000	7.077520	2.452197	0.986880	8.608731	0.150251	31.733259	-6.545542	0.000000	0.456762	0.078986	0.097081	0.848252	0.105051	0.103149	0.750414	0.192046	0.103149	0.522033	0.192046	0.084946	0.424149	0.161068	0.078879	0.260994	0.122349	0.072811	3.262604	0.893505	0.539937	0.000000	0.000000	28.435424	0.865967	1.125896	24.465879	-8.041814	70.267435	47.156301	68.166108	-6.993882	-2.082647	17.372268	-3.572085	46.783918	51.059213	55.464908	-8.374776	13.834806
0.050000	2.265769	-6.353114	90.324317	0.320711	1.030374	0.446655	6.653872	-4.162915	-6.709350	10.447765	0.182348	34.582734	8.245559	0.000000	7.331212	2.323742	0.652799	8.895232	0.155251	32.381316	-5.293334	0.000000	0.447001	0.068994	0.032349	0.830126	0.091761	0.034370	0.734378	0.167751	0.034370	0.510878	0.167751	0.028305	0.415085	0.140692	0.026283	0.255416	0.106871	0.024261	3.192884	0.780469	0.179913	0.000000	0.000000	28.432254	0.834921	0.668462	24.109001	-7.809558	69.122073	46.826065	70.447102	-6.918055	-1.516536	17.461446	-3.505889	46.930650	50.872148	54.627752	-8.282222	14.356317
0.066667	2.299163	-6.362688	90.689875	0.320963	1.029885	0.447497	6.616268	-4.105995	-6.525180	10.398416	0.181487	34.624921	7.718488	0.000000	7.503594	2.224545	0.263374	9.110113	0.159001	32.899230	-4.241334	0.000000	0.437044	0.058936	-0.000710	0.811635	0.078385	-0.000754	0.718020	0.143297	-0.000754	0.499498	0.143297	-0.000621	0.405839	0.120182	-0.000577	0.249727	0.091292	-0.000532	3.121763	0.666695	-0.003948	0.000000	0.000000	28.428762	0.779276	0.303663	23.783257	-7.593151	68.141792	46.528413	72.331393	-6.781054	-1.038004	17.533323	-3.468205	47.030227	50.736936	53.912986	-8.241508	14.722454
0.083333	2.304700	-6.361214	90.851809	0.321331	1.029552	0.448060	6.580782	-4.071959	-6.255468	10.347162	0.180592	34.622887	7.337574	0.000000	7.601868	2.151055	-0.164626	9.259834	0.161615	33.298973	-3.377234	0.000000	0.427041	0.048998	-0.006218	0.793057	0.065167	-0.006606	0.701585	0.119133	-0.006606	0.488065	0.119133	-0.005440	0.396550	0.099916	-0.005052	0.244011	0.075897	-0.004663	3.050309	0.554272	-0.034581	0.000000	0.000000	28.425052	0.701332	0.019645	23.487305	-7.394221	67.313259	46.263061	73.865563	-6.600872	-0.642069	17.588524	-3.454921	47.091000	50.646883	53.312669	-8.244886	14.950993
0.100000	2.287644	-6.349051	90.840126	0.321791	1.029363	0.448369	6.544522	-4.056580	-5.916247	10.293300	0.179652	34.582730	7.083493	0.000000	7.633238	2.099721	-0.614437	9.350856	0.163203	33.592518	-2.688724	0.000000	0.417140	0.039364	0.011702	0.774670	0.052353	0.012433	0.685319	0.095708	0.012433	0.476749	0.095708	0.010239	0.387356	0.080270	0.009508	0.238354	0.060974	0.008776	2.979587	0.445288	0.065081	0.000000	0.000000	28.421228	0.603383	-0.195451	23.219799	-7.214393	66.623143	46.029728	75.096197	-6.395503	-0.323749	17.627678	-3.461926	47.121321	50.595293	52.818858	-8.284610	15.059709
0.116667	2.253258	-6.326559	90.684833	0.322319	1.029301	0.448449	6.504594	-4.055633	-5.523552	10.236126	0.178654	34.510550	6.936924	0.000000	7.604904	2.066993	-1.069290	9.389637	0.163880	33.791838	-2.163497	0.000000	0.407491	0.030218	0.048925	0.756751	0.040190	0.051982	0.669466	0.073472	0.051982	0.465721	0.073472	0.042809	0.378396	0.061621	0.039751	0.232840	0.046808	0.036693	2.910665	0.341833	0.272103	0.000000	0.000000	28.417393	0.487730	-0.353481	22.979398	-7.055296	66.058114	45.828128	76.069875	-6.182942	-0.078066	17.651412	-3.485110	47.129541	50.575473	52.423613	-8.352930	15.066376
0.133333	2.206805	-6.294098	90.415933	0.322891	1.029354	0.448326	6.458105	-4.064892	-5.093417	10.174934	0.177586	34.412446	6.878542	0.000000	7.524071	2.049320	-1.512419	9.382639	0.163758	33.908904	-1.789243	0.000000	0.398243	0.021746	0.101327	0.739577	0.028922	0.107660	0.654273	0.052873	0.107660	0.455152	0.052873	0.088661	0.369808	0.044344	0.082329	0.227556	0.033685	0.075996	2.844609	0.245995	0.563553	0.000000	0.000000	28.413651	0.356667	-0.466301	22.764756	-6.918556	65.604839	45.657981	76.833182	-5.981181	0.099962	17.660351	-3.520361	47.124011	50.580727	52.118992	-8.442098	14.988769
0.150000	2.153547	-6.252025	90.063435	0.323484	1.029507	0.448026	6.402162	-4.080130	-4.641876	10.109021	0.176436	34.294518	6.889026	0.000000	7.397941	2.043152	-1.927057	9.336322	0.162950	33.955688	-1.553654	0.000000	0.389546	0.014132	0.164787	0.723426	0.018796	0.175086	0.639985	0.034361	0.175086	0.445212	0.034361	0.144188	0.361732	0.028818	0.133889	0.222586	0.021891	0.123590	2.782487	0.159864	0.916494	0.000000	0.000000	28.410105	0.212493	-0.545769	22.574532	-6.805799	65.249988	45.519002	77.432700	-5.808215	0.215316	17.655123	-3.563568	47.113083	50.604361	51.897053	-8.544368	14.844662
0.166667	2.098750	-6.200702	89.657342	0.324073	1.029746	0.447573	6.333873	-4.097121	-4.184962	10.037681	0.175191	34.162864	6.949053	0.000000	7.233717	2.044939	-2.296437	9.257146	0.161568	33.944164	-1.444420	0.000000	0.381549	0.007561	0.235179	0.708574	0.010056	0.249878	0.626847	0.018383	0.249878	0.436072	0.018383	0.205782	0.354306	0.015418	0.191083	0.218017	0.011712	0.176384	2.725365	0.085530	1.307995	0.000000	0.000000	28.406859	0.057506	-0.603741	22.407380	-6.718653	64.980228	45.410908	77.915012	-5.682038	0.272976	17.636355	-3.610620	47.105106	50.639680	51.749855	-8.651992	14.651830
0.183333	2.067416	-6.125657	89.283407	0.324566	1.030070	0.446985	6.220281	-4.092419	-3.746917	9.947381	0.173615	34.031737	6.970444	0.000000	7.030815	2.036195	-2.591234	9.161760	0.159903	33.944106	-1.410512	0.000000	0.373826	0.004758	0.299022	0.694233	0.006328	0.317711	0.614159	0.011568	0.317711	0.427246	0.011568	0.261645	0.347135	0.009702	0.242956	0.213604	0.007370	0.224267	2.670204	0.053819	1.663073	0.000000	0.000000	28.403851	-0.164853	-0.653173	22.225874	-6.632833	64.676548	45.267088	78.663865	-5.657205	0.209731	17.622702	-3.670710	47.225823	50.649673	51.811076	-8.727982	14.435999
0.200000	2.052230	-6.037968	88.953973	0.324983	1.030450	0.446266	6.066163	-4.074710	-3.364494	9.824030	0.171462	33.890654	6.991064	0.000000	6.791868	2.026778	-2.731630	9.031585	0.157631	33.888771	-1.521377	0.000000	0.367204	0.002806	0.357784	0.681935	0.003732	0.380145	0.603280	0.006822	0.380145	0.419677	0.006822	0.313061	0.340986	0.005722	0.290699	0.209820	0.004346	0.268338	2.622902	0.031742	1.989886	0.000000	0.000000	28.401555	-0.348453	-0.740747	22.098862	-6.615267	64.502278	45.216740	79.426408	-5.842305	0.119279	17.581559	-3.702891	47.315723	50.655712	51.835533	-8.787212	14.274594
0.216667	2.047598	-5.950648	88.646402	0.325338	1.030862	0.445520	5.919761	-4.051180	-3.011127	9.721919	0.169679	33.774767	7.012059	0.000000	6.555827	2.018195	-2.739354	8.907081	0.155458	33.802818	-1.775312	0.000000	0.362514	0.001458	0.414726	0.673225	0.001940	0.440646	0.595574	0.003546	0.440646	0.414317	0.003546	0.362885	0.336631	0.002974	0.336965	0.207141	0.002259	0.311044	2.589402	0.016497	2.306579	0.000000	0.000000	28.400117	-0.477073	-0.854429	22.062058	-6.650507	64.553775	45.200982	79.970694	-6.236034	-0.047215	17.529996	-3.701252	47.410684	50.621029	51.871996	-8.844367	14.070795
0.233333	2.062539	-5.863569	88.445774	0.325574	1.031292	0.444750	5.752701	-4.011401	-2.718462	9.608414	0.167698	33.666175	6.947664	0.000000	6.327049	2.007015	-2.581087	8.784689	0.153322	33.684838	-2.129132	0.000000	0.359589	0.001053	0.453694	0.667793	0.001401	0.482050	0.590769	0.002561	0.482050	0.410975	0.002561	0.396982	0.333915	0.002148	0.368627	0.205469	0.001632	0.340271	2.568510	0.011915	2.523311	0.000000	0.000000	28.399646	-0.605124	-1.017196	22.056524	-6.713052	64.667495	45.224767	80.492013	-6.781323	-0.200649	17.449858	-3.683105	47.460328	50.588944	51.927383	-8.856627	13.960723
0.250000	2.094863	-5.782193	88.323906	0.325703	1.031713	0.443977	5.577348	-3.960456	-2.519430	9.488220	0.165601	33.584302	6.886736	0.000000	6.117216	1.983413	-2.443488	8.673395	0.151379	33.598005	-2.369761	0.000000	0.358988	0.002216	0.484660	0.666677	0.002947	0.514951	0.589781	0.005388	0.514951	0.410287	0.005388	0.424077	0.333356	0.004519	0.393786	0.205126	0.003433	0.363495	2.564216	0.025067	2.695533	0.000000	0.000000	28.400064	-0.745136	-1.213924	22.000564	-6.818267	64.592708	45.314001	81.370136	-7.301504	-0.292755	17.377236	-3.652233	47.583989	50.540871	51.887650	-8.830443	13.865206
0.266667	2.145466	-5.707676	88.291391	0.325705	1.032119	0.443212	5.398760	-3.896330	-2.381902	9.374113	0.163609	33.518593	6.776557	0.000000	5.916976	1.963146	-2.064218	8.540534	0.149060	33.452634	-2.843182	0.000000	0.360613	0.005654	0.500240	0.669694	0.007519	0.531505	0.592450	0.013746	0.531505	0.412144	0.013746	0.437710	0.334865	0.011529	0.406445	0.206054	0.008758	0.375180	2.575819	0.063956	2.782183	0.000000	0.000000	28.401372	-0.898068	-1.407120	21.928230	-6.936252	64.480689	45.423602	82.141932	-7.802582	-0.374755	17.286886	-3.618027	47.734217	50.502796	51.825258	-8.797195	13.788576
0.283333	2.209267	-5.641198	88.314325	0.325646	1.032499	0.442504	5.232216	-3.822080	-2.308395	9.283058	0.162020	33.475802	6.657659	0.000000	5.751348	1.917116	-1.910103	8.435864	0.147234	33.392280	-2.981649	0.000000	0.363532	0.010748	0.507925	0.675115	0.014295	0.539670	0.597247	0.026133	0.539670	0.415481	0.026133	0.444434	0.337576	0.021918	0.412689	0.207722	0.016649	0.380944	2.596673	0.121585	2.824927	0.000000	0.000000	28.403348	-1.066202	-1.605613	21.818152	-7.062780	64.269993	45.559938	82.751681	-8.189892	-0.442582	17.180741	-3.584720	47.873847	50.485292	51.970883	-8.705967	13.760264
